<mxfile host="app.diagrams.net" agent="Mozilla/5.0 (Windows NT 10.0; Win64; x64) AppleWebKit/537.36 (KHTML, like Gecko) Chrome/136.0.0.0 Safari/537.36" version="27.0.6">
  <diagram name="Page-1" id="fSoLDmt2LplABd6LEfUW">
    <mxGraphModel dx="2040" dy="730" grid="1" gridSize="10" guides="1" tooltips="1" connect="1" arrows="1" fold="1" page="1" pageScale="1" pageWidth="827" pageHeight="1169" math="0" shadow="0">
      <root>
        <mxCell id="0" />
        <mxCell id="1" parent="0" />
        <mxCell id="9-5oRkwx2I15n0rI8hHB-1" value=":Main" style="shape=umlLifeline;perimeter=lifelinePerimeter;whiteSpace=wrap;html=1;container=1;dropTarget=0;collapsible=0;recursiveResize=0;outlineConnect=0;portConstraint=eastwest;newEdgeStyle={&quot;curved&quot;:0,&quot;rounded&quot;:0};" parent="1" vertex="1">
          <mxGeometry x="-730" y="60" width="100" height="190" as="geometry" />
        </mxCell>
        <mxCell id="iUhGSszVBfwWcUKrmK6L-1" value="" style="html=1;points=[[0,0,0,0,5],[0,1,0,0,-5],[1,0,0,0,5],[1,1,0,0,-5]];perimeter=orthogonalPerimeter;outlineConnect=0;targetShapes=umlLifeline;portConstraint=eastwest;newEdgeStyle={&quot;curved&quot;:0,&quot;rounded&quot;:0};" vertex="1" parent="9-5oRkwx2I15n0rI8hHB-1">
          <mxGeometry x="45" y="60" width="10" height="80" as="geometry" />
        </mxCell>
        <mxCell id="iUhGSszVBfwWcUKrmK6L-3" value="" style="shape=umlDestroy;whiteSpace=wrap;html=1;strokeWidth=3;targetShapes=umlLifeline;" vertex="1" parent="9-5oRkwx2I15n0rI8hHB-1">
          <mxGeometry x="35" y="180" width="30" height="30" as="geometry" />
        </mxCell>
        <mxCell id="iUhGSszVBfwWcUKrmK6L-2" value="dispatch" style="html=1;verticalAlign=bottom;startArrow=oval;startFill=1;endArrow=block;startSize=8;curved=0;rounded=0;" edge="1" parent="1">
          <mxGeometry width="60" relative="1" as="geometry">
            <mxPoint x="-780" y="120" as="sourcePoint" />
            <mxPoint x="-680" y="120" as="targetPoint" />
          </mxGeometry>
        </mxCell>
        <mxCell id="iUhGSszVBfwWcUKrmK6L-4" value="NewProgram()" style="html=1;verticalAlign=bottom;endArrow=block;curved=0;rounded=0;" edge="1" parent="1" source="9-5oRkwx2I15n0rI8hHB-1">
          <mxGeometry width="80" relative="1" as="geometry">
            <mxPoint x="-670" y="154.5" as="sourcePoint" />
            <mxPoint x="-560" y="155" as="targetPoint" />
          </mxGeometry>
        </mxCell>
        <mxCell id="iUhGSszVBfwWcUKrmK6L-5" value=":Server" style="shape=umlLifeline;perimeter=lifelinePerimeter;whiteSpace=wrap;html=1;container=1;dropTarget=0;collapsible=0;recursiveResize=0;outlineConnect=0;portConstraint=eastwest;newEdgeStyle={&quot;curved&quot;:0,&quot;rounded&quot;:0};" vertex="1" parent="1">
          <mxGeometry x="-560" y="130" width="100" height="300" as="geometry" />
        </mxCell>
        <mxCell id="iUhGSszVBfwWcUKrmK6L-8" value=":Main" style="shape=umlLifeline;perimeter=lifelinePerimeter;whiteSpace=wrap;html=1;container=1;dropTarget=0;collapsible=0;recursiveResize=0;outlineConnect=0;portConstraint=eastwest;newEdgeStyle={&quot;curved&quot;:0,&quot;rounded&quot;:0};" vertex="1" parent="1">
          <mxGeometry x="-400" y="60" width="100" height="190" as="geometry" />
        </mxCell>
        <mxCell id="iUhGSszVBfwWcUKrmK6L-9" value="" style="html=1;points=[[0,0,0,0,5],[0,1,0,0,-5],[1,0,0,0,5],[1,1,0,0,-5]];perimeter=orthogonalPerimeter;outlineConnect=0;targetShapes=umlLifeline;portConstraint=eastwest;newEdgeStyle={&quot;curved&quot;:0,&quot;rounded&quot;:0};" vertex="1" parent="iUhGSszVBfwWcUKrmK6L-8">
          <mxGeometry x="45" y="60" width="10" height="80" as="geometry" />
        </mxCell>
        <mxCell id="iUhGSszVBfwWcUKrmK6L-10" value="" style="shape=umlDestroy;whiteSpace=wrap;html=1;strokeWidth=3;targetShapes=umlLifeline;" vertex="1" parent="iUhGSszVBfwWcUKrmK6L-8">
          <mxGeometry x="35" y="180" width="30" height="30" as="geometry" />
        </mxCell>
        <mxCell id="iUhGSszVBfwWcUKrmK6L-11" value="dispatch" style="html=1;verticalAlign=bottom;startArrow=oval;startFill=1;endArrow=block;startSize=8;curved=0;rounded=0;" edge="1" parent="1">
          <mxGeometry width="60" relative="1" as="geometry">
            <mxPoint x="-450" y="120" as="sourcePoint" />
            <mxPoint x="-350" y="120" as="targetPoint" />
          </mxGeometry>
        </mxCell>
        <mxCell id="iUhGSszVBfwWcUKrmK6L-12" value="NewProgram()" style="html=1;verticalAlign=bottom;endArrow=block;curved=0;rounded=0;" edge="1" parent="1" source="iUhGSszVBfwWcUKrmK6L-8">
          <mxGeometry width="80" relative="1" as="geometry">
            <mxPoint x="-340" y="154.5" as="sourcePoint" />
            <mxPoint x="-230" y="155" as="targetPoint" />
          </mxGeometry>
        </mxCell>
        <mxCell id="iUhGSszVBfwWcUKrmK6L-13" value=":Client" style="shape=umlLifeline;perimeter=lifelinePerimeter;whiteSpace=wrap;html=1;container=1;dropTarget=0;collapsible=0;recursiveResize=0;outlineConnect=0;portConstraint=eastwest;newEdgeStyle={&quot;curved&quot;:0,&quot;rounded&quot;:0};" vertex="1" parent="1">
          <mxGeometry x="-230" y="130" width="100" height="300" as="geometry" />
        </mxCell>
      </root>
    </mxGraphModel>
  </diagram>
</mxfile>
